<svg width="130" height="20" fill="none" xmlns="http://www.w3.org/2000/svg"><path d="M26.49.107h23.022v19.785H26.491V.107zm11.512 15.825h7.226c.096 0 .193.006.29.001.091-.004.141-.06.149-.155.003-.037.002-.075.002-.112V4.252c-.004-.13-.058-.185-.186-.187-.063-.001-.127.003-.19.003H30.705c-.073 0-.145-.005-.217-.001-.105.005-.152.058-.157.165-.002.037 0 .075 0 .112V15.75c.002.133.05.184.183.187.096.001.193-.004.29-.004h7.198z" fill="#fff"/><path d="M26.49.107l.001.215v19.57h23.021l-.009.018c-.024.002-.048.001-.072.001H26.473V.19c0-.028.012-.055.018-.084zM23.022.089H0v3.91h23.022V.09zm106.623.018v19.785h-3.692c-.135 0-.14 0-.151-.136-.008-.11.001-.223.001-.335V4.606c0-.1.002-.2.003-.299.003-.193-.039-.238-.224-.238h-5.335c-.156 0-.204.05-.204.213l.004 15.198c0 .115.001.23-.007.344-.002.023-.039.052-.065.064-.026.01-.06.004-.09.004h-3.504c-.154 0-.159 0-.169-.16-.007-.111.006-.224.006-.335l.001-14.816c0-.102.003-.205.002-.308 0-.149-.055-.205-.196-.205h-5.37c-.146 0-.195.05-.195.203l.003 1.083v14.068c0 .13-.004.261-.003.392 0 .056-.025.079-.077.076-.027-.002-.055 0-.082 0h-3.505c-.185 0-.145.014-.168-.16-.012-.084-.001-.173-.001-.26l.001-18.944c0-.14.008-.28.013-.42l23.004.001zm-26.934 0c.042 1.16.005 2.32.018 3.48.001.083.008.167.013.25.007.11-.031.155-.138.158H80.047c-.262 0-.26 0-.26-.265V.18c0-.024-.004-.048-.007-.073h22.931zM91.244 19.885H79.996c-.243 0-.209.04-.21-.219-.001-1.17 0-2.341-.002-3.512 0-.091.019-.143.114-.142.042 0 .084-.007.126-.007h22.533c.17 0 .201.038.18.212a1.088 1.088 0 00-.008.14l-.001 3.11c0 .117-.011.233-.015.35-.002.059-.035.072-.085.068-.027-.002-.054 0-.081 0H91.244zm.046-11.797h11.31c.104.002.143.04.143.146l-.014 3.23c0 .093.007.186.013.28.007.12-.032.166-.148.168h-.072l-22.449-.001c-.072 0-.144-.012-.216-.015-.053-.002-.074-.027-.072-.082.003-.075.001-.15.001-.225 0-1.114.001-2.229-.003-3.343 0-.101.022-.152.124-.15.054 0 .109-.008.163-.008h11.22z" fill="#fff"/><path d="M23.05 19.892h-3.56c-.28 0-.28.002-.28-.283V4.253c-.002-.134-.05-.186-.182-.188-.103 0-.206.004-.308.004H.517c-.132 0-.265-.006-.398-.003-.074.002-.095-.033-.09-.101.002-.04 0-.081 0-.121L.026.107H23.05v19.785zM72.12 4.353v-.112c-.003-.118-.052-.172-.166-.175-.103-.003-.205.002-.308.002h-18.22c-.133 0-.266-.006-.398-.002-.075.002-.095-.033-.09-.101.002-.04 0-.081 0-.122L52.935.107h23.022v19.785h-3.653c-.178 0-.179 0-.184-.183v-.131" fill="#fff"/></svg>